<svg width="1486" height="1486" viewBox="0 0 1486 1486" fill="none" xmlns="http://www.w3.org/2000/svg">
<path d="M1203.66 544.827C1203.66 544.827 1131.02 403.627 970.625 382.734C810.226 361.841 698.42 463.781 580.223 516.058C518.406 543.46 447.821 532.82 382.199 546.075C172.376 588.456 93.3206 853.975 180.727 1004.98C256.394 1135.75 389.57 1203.66 592.349 1219.35C795.129 1235.04 937.369 1253.35 1118.96 1125.23C1300.55 997.106 1288.45 730.458 1203.66 544.827Z" fill="#92E3A9"/>
<path opacity="0.8" d="M1203.66 544.827C1203.66 544.827 1131.02 403.627 970.625 382.734C810.226 361.841 698.42 463.781 580.223 516.058C518.406 543.46 447.821 532.82 382.199 546.075C172.376 588.456 93.3206 853.975 180.727 1004.98C256.394 1135.75 389.57 1203.66 592.349 1219.35C795.129 1235.04 937.369 1253.35 1118.96 1125.23C1300.55 997.106 1288.45 730.458 1203.66 544.827Z" fill="white"/>
<path d="M690.574 1309.2C937.373 1309.2 1137.44 1296.09 1137.44 1279.92C1137.44 1263.75 937.373 1250.65 690.574 1250.65C443.775 1250.65 243.704 1263.75 243.704 1279.92C243.704 1296.09 443.775 1309.2 690.574 1309.2Z" fill="#92E3A9"/>
<path opacity="0.5" d="M690.574 1309.2C937.373 1309.2 1137.44 1296.09 1137.44 1279.92C1137.44 1263.75 937.373 1250.65 690.574 1250.65C443.775 1250.65 243.704 1263.75 243.704 1279.92C243.704 1296.09 443.775 1309.2 690.574 1309.2Z" fill="white"/>
<path d="M1001.03 884.289C992.677 904.885 984.118 888.331 985.485 802.024C986.109 761.605 988.962 678.953 1033.69 697.142C1076.67 714.617 1020.02 836.826 1020.02 836.826L1001.03 884.289ZM1062.43 896.533C1062.43 896.533 1155.66 799.379 1120.71 768.737C1084.3 737.056 1054.79 814.328 1041.06 852.429C1011.76 933.594 1014.31 952.021 1029.02 935.259L1062.43 896.533ZM1082.1 983.732C1082.1 983.732 1167.46 922.954 1145.14 894.572C1121.93 865.06 1088.14 919.804 1072.15 946.909C1037.97 1004.71 1037.38 1019.19 1050.96 1008.49L1082.1 983.732ZM1105.2 1070.66C1105.2 1070.66 1190.58 1009.89 1168.26 981.503C1145.02 951.991 1111.26 1006.74 1095.24 1033.84C1061.09 1091.65 1060.47 1106.15 1074.05 1095.45L1105.2 1070.66ZM956.122 895.88C956.122 895.88 836.677 833.705 817.27 875.819C797.031 919.656 879.444 926.343 919.834 928.78C1006.02 934.099 1022.87 926.313 1002.69 917.04L956.122 895.88ZM972.943 964.236C972.943 964.236 843.542 927.056 832.873 972.2C821.758 1019.19 903.844 1009.32 943.907 1003.73C1029.38 991.845 1044.42 980.819 1022.81 975.737L972.943 964.236ZM1002.66 1038.86C1002.66 1038.86 892.372 1010.42 884.378 1048.85C876.086 1088.82 945.274 1078.57 979.036 1072.92C1051.02 1060.86 1063.5 1051.23 1045.1 1047.42L1002.66 1038.86ZM1019.93 1100.47C1019.93 1100.47 913.265 1060.47 901.259 1097.83C888.776 1136.7 958.648 1133.85 992.796 1131.83C1065.67 1127.49 1078.98 1119.2 1061.15 1113.49L1019.93 1100.47ZM948.603 788.412C948.603 788.412 899.921 637.078 844.583 664.569C787.045 693.159 853.499 761.426 886.785 794.089C957.727 863.782 979.66 868.686 970.328 844.345L948.603 788.412Z" fill="#92E3A9"/>
<path opacity="0.65" d="M1001.03 884.289C992.677 904.885 984.118 888.331 985.485 802.024C986.109 761.605 988.962 678.953 1033.69 697.142C1076.67 714.617 1020.02 836.826 1020.02 836.826L1001.03 884.289ZM1062.43 896.533C1062.43 896.533 1155.66 799.379 1120.71 768.737C1084.3 737.056 1054.79 814.328 1041.06 852.429C1011.76 933.594 1014.31 952.021 1029.02 935.259L1062.43 896.533ZM1082.1 983.732C1082.1 983.732 1167.46 922.954 1145.14 894.572C1121.93 865.06 1088.14 919.804 1072.15 946.909C1037.97 1004.71 1037.38 1019.19 1050.96 1008.49L1082.1 983.732ZM1105.2 1070.66C1105.2 1070.66 1190.58 1009.89 1168.26 981.503C1145.02 951.991 1111.26 1006.74 1095.24 1033.84C1061.09 1091.65 1060.47 1106.15 1074.05 1095.45L1105.2 1070.66ZM956.122 895.88C956.122 895.88 836.677 833.705 817.27 875.819C797.031 919.656 879.444 926.343 919.834 928.78C1006.02 934.099 1022.87 926.313 1002.69 917.04L956.122 895.88ZM972.943 964.236C972.943 964.236 843.542 927.056 832.873 972.2C821.758 1019.19 903.844 1009.32 943.907 1003.73C1029.38 991.845 1044.42 980.819 1022.81 975.737L972.943 964.236ZM1002.66 1038.86C1002.66 1038.86 892.372 1010.42 884.378 1048.85C876.086 1088.82 945.274 1078.57 979.036 1072.92C1051.02 1060.86 1063.5 1051.23 1045.1 1047.42L1002.66 1038.86ZM1019.93 1100.47C1019.93 1100.47 913.265 1060.47 901.259 1097.83C888.776 1136.7 958.648 1133.85 992.796 1131.83C1065.67 1127.49 1078.98 1119.2 1061.15 1113.49L1019.93 1100.47ZM948.603 788.412C948.603 788.412 899.921 637.078 844.583 664.569C787.045 693.159 853.499 761.426 886.785 794.089C957.727 863.782 979.66 868.686 970.328 844.345L948.603 788.412Z" fill="white"/>
<path d="M867.586 718.54C867.586 718.54 989.884 867.735 1019.16 942.451C1052.8 1028.25 1075.15 1127.1 1079.7 1207.17" stroke="#CCCCCC" stroke-width="1.25197" stroke-linecap="round" stroke-linejoin="round"/>
<path d="M994.788 893.71L1011.82 751.44" stroke="#CCCCCC" stroke-width="1.25197" stroke-linecap="round" stroke-linejoin="round"/>
<path d="M1019.13 942.451L1080.65 822.858" stroke="#CCCCCC" stroke-width="1.25197" stroke-linecap="round" stroke-linejoin="round"/>
<path d="M1010.15 924.708L881.317 898.465" stroke="#CCCCCC" stroke-width="1.25197" stroke-linecap="round" stroke-linejoin="round"/>
<path d="M1043.35 1010.3L1119.11 923.995" stroke="#CCCCCC" stroke-width="1.25197" stroke-linecap="round" stroke-linejoin="round"/>
<path d="M1032.77 981.86L935.496 981.027" stroke="#CCCCCC" stroke-width="1.25197" stroke-linecap="round" stroke-linejoin="round"/>
<path d="M1051.49 1052.47L976.896 1055.45" stroke="#CCCCCC" stroke-width="1.25197" stroke-linecap="round" stroke-linejoin="round"/>
<path d="M1066.83 1097.56L1106.77 1044.3" stroke="#CCCCCC" stroke-width="1.25197" stroke-linecap="round" stroke-linejoin="round"/>
<path d="M1069.74 1117.35L982.483 1113.01" stroke="#CCCCCC" stroke-width="1.25197" stroke-linecap="round" stroke-linejoin="round"/>
<path d="M1236.35 1002.13C1221.28 1007.81 1225.89 995.144 1272.46 953.447C1294.28 933.892 1339.63 894.81 1351.93 927.531C1363.82 958.975 1270.95 988.903 1270.95 988.903L1236.35 1002.13ZM1260.13 1040.76C1260.13 1040.76 1357.64 1042.61 1356.66 1009.02C1355.65 974.073 1300.04 996.333 1273.06 1007.72C1215.49 1032.03 1207.02 1042.52 1223.1 1042.04L1260.13 1040.76ZM1223.39 1094.08C1223.39 1094.08 1297.69 1109.63 1301.8 1083.8C1306.1 1057.05 1260.37 1065.97 1238.08 1070.69C1190.52 1080.92 1182.53 1087.72 1194.89 1089.68L1223.39 1094.08ZM1188.5 1149.09C1188.5 1149.09 1262.8 1164.64 1266.93 1138.81C1271.21 1112.06 1225.33 1120.98 1203.21 1125.7C1155.66 1135.96 1147.67 1142.76 1160.03 1144.73L1188.5 1149.09ZM1208.21 983.881C1208.21 983.881 1182.59 889.787 1150.61 900.159C1117.35 910.977 1154.32 958.054 1172.87 980.76C1212.37 1029.17 1224.82 1034.26 1219.86 1019.07L1208.21 983.881ZM1179.88 1026.53C1179.88 1026.53 1136.05 939.419 1106.77 955.944C1076.34 973.122 1121.93 1011.94 1144.61 1030.51C1192.93 1070.1 1206.19 1072.71 1198.25 1058.72L1179.88 1026.53ZM1154.74 1078.98C1154.74 1078.98 1115.66 1006.32 1091.29 1020.97C1065.94 1036.22 1105.41 1067.96 1124.99 1083.15C1166.81 1115.51 1178.07 1117.47 1170.97 1105.76L1154.74 1078.98ZM1130.46 1118.45C1130.46 1118.45 1099.31 1042.04 1073.55 1054.02C1046.8 1066.47 1082.46 1102.26 1100.29 1119.4C1138.57 1156.11 1149.57 1159.08 1143.83 1146.81L1130.46 1118.45ZM1261.23 927.056C1261.23 927.056 1317.7 826.781 1276.09 810.88C1232.61 794.356 1228.98 863.247 1227.94 897.068C1225.71 969.05 1233.89 983.256 1242.27 966.197L1261.23 927.056Z" fill="#92E3A9"/>
<path opacity="0.65" d="M1236.35 1002.13C1221.28 1007.81 1225.89 995.144 1272.46 953.447C1294.28 933.892 1339.63 894.81 1351.93 927.531C1363.82 958.975 1270.95 988.903 1270.95 988.903L1236.35 1002.13ZM1260.13 1040.76C1260.13 1040.76 1357.64 1042.61 1356.66 1009.02C1355.65 974.073 1300.04 996.333 1273.06 1007.72C1215.49 1032.03 1207.02 1042.52 1223.1 1042.04L1260.13 1040.76ZM1223.39 1094.08C1223.39 1094.08 1297.69 1109.63 1301.8 1083.8C1306.1 1057.05 1260.37 1065.97 1238.08 1070.69C1190.52 1080.92 1182.53 1087.72 1194.89 1089.68L1223.39 1094.08ZM1188.5 1149.09C1188.5 1149.09 1262.8 1164.64 1266.93 1138.81C1271.21 1112.06 1225.33 1120.98 1203.21 1125.7C1155.66 1135.96 1147.67 1142.76 1160.03 1144.73L1188.5 1149.09ZM1208.21 983.881C1208.21 983.881 1182.59 889.787 1150.61 900.159C1117.35 910.977 1154.32 958.054 1172.87 980.76C1212.37 1029.17 1224.82 1034.26 1219.86 1019.07L1208.21 983.881ZM1179.88 1026.53C1179.88 1026.53 1136.05 939.419 1106.77 955.944C1076.34 973.122 1121.93 1011.94 1144.61 1030.51C1192.93 1070.1 1206.19 1072.71 1198.25 1058.72L1179.88 1026.53ZM1154.74 1078.98C1154.74 1078.98 1115.66 1006.32 1091.29 1020.97C1065.94 1036.22 1105.41 1067.96 1124.99 1083.15C1166.81 1115.51 1178.07 1117.47 1170.97 1105.76L1154.74 1078.98ZM1130.46 1118.45C1130.46 1118.45 1099.31 1042.04 1073.55 1054.02C1046.8 1066.47 1082.46 1102.26 1100.29 1119.4C1138.57 1156.11 1149.57 1159.08 1143.83 1146.81L1130.46 1118.45ZM1261.23 927.056C1261.23 927.056 1317.7 826.781 1276.09 810.88C1232.61 794.356 1228.98 863.247 1227.94 897.068C1225.71 969.05 1233.89 983.256 1242.27 966.197L1261.23 927.056Z" fill="#E5E5E5"/>
<path d="M1258.82 849.695C1258.82 849.695 1239.56 988.071 1214.24 1040.35C1185.11 1100.41 1143.54 1160.92 1103.18 1202.68" stroke="#CCCCCC" stroke-width="1.25197" stroke-linecap="round" stroke-linejoin="round"/>
<path d="M1228.15 1003.47L1312.2 942.57" stroke="#CCCCCC" stroke-width="1.25197" stroke-linecap="round" stroke-linejoin="round"/>
<path d="M1214.21 1040.35L1308.07 1014.31" stroke="#CCCCCC" stroke-width="1.25197" stroke-linecap="round" stroke-linejoin="round"/>
<path d="M1219.2 1026.89L1169.84 945.423" stroke="#CCCCCC" stroke-width="1.25197" stroke-linecap="round" stroke-linejoin="round"/>
<path d="M1190.02 1086.59L1273.15 1084.45" stroke="#CCCCCC" stroke-width="1.25197" stroke-linecap="round" stroke-linejoin="round"/>
<path d="M1199.92 1066.98L1152.57 1014.85" stroke="#CCCCCC" stroke-width="1.25197" stroke-linecap="round" stroke-linejoin="round"/>
<path d="M1171.56 1111.65L1133.34 1073.43" stroke="#CCCCCC" stroke-width="1.25197" stroke-linecap="round" stroke-linejoin="round"/>
<path d="M1155.13 1141.96L1203.09 1137.03" stroke="#CCCCCC" stroke-width="1.25197" stroke-linecap="round" stroke-linejoin="round"/>
<path d="M1146.03 1153.25L1105.46 1104.69" stroke="#CCCCCC" stroke-width="1.25197" stroke-linecap="round" stroke-linejoin="round"/>
<path d="M370.519 328.109C363.297 345.941 355.927 331.586 357.086 257.048C357.621 222.097 360.058 150.71 398.694 166.432C435.814 181.53 386.806 287.065 386.806 287.065L370.519 328.109ZM423.569 338.808C423.569 338.808 504.14 254.849 473.915 228.517C442.471 201.115 416.971 267.837 405.083 300.707C379.792 370.816 382.11 386.895 394.711 372.273L423.569 338.808ZM440.569 414.118C440.569 414.118 514.304 361.633 495.016 337.114C474.955 311.614 445.8 358.899 431.95 382.318C402.438 432.277 401.933 444.73 413.643 435.547L440.569 414.118ZM460.66 489.102C460.66 489.102 534.425 436.617 515.137 412.098C495.076 386.598 465.891 433.912 452.071 457.302C422.559 507.261 422.024 519.714 433.763 510.53L460.66 489.102ZM331.883 338.095C331.883 338.095 228.547 284.391 211.755 320.798C194.279 358.661 265.489 364.397 300.35 366.537C374.65 371.143 389.51 364.427 371.975 356.402L331.883 338.095ZM346.416 397.238C346.416 397.238 234.461 365.11 225.248 404.192C215.648 444.79 286.56 436.26 321.184 431.445C395.008 421.132 407.996 411.652 389.332 407.253L346.416 397.238ZM372.005 461.7C372.005 461.7 276.723 437.122 269.828 470.319C262.635 504.883 322.432 495.997 351.587 491.123C413.791 480.721 424.55 472.37 408.65 469.1L372.005 461.7ZM386.865 514.929C386.865 514.929 294.733 480.364 284.331 512.64C273.543 546.224 333.904 543.757 363.416 542.004C426.393 538.259 437.984 531.126 422.529 526.163L386.865 514.929ZM325.077 245.309C325.077 245.309 282.994 114.541 235.263 138.317C185.542 163.044 242.991 222.008 271.7 250.213C332.983 310.455 351.944 314.675 343.89 293.634L325.077 245.309Z" fill="#92E3A9"/>
<path opacity="0.65" d="M370.519 328.109C363.297 345.941 355.927 331.586 357.086 257.048C357.621 222.097 360.058 150.71 398.694 166.432C435.814 181.53 386.806 287.065 386.806 287.065L370.519 328.109ZM423.569 338.808C423.569 338.808 504.14 254.849 473.915 228.517C442.471 201.115 416.971 267.837 405.083 300.707C379.792 370.816 382.11 386.895 394.711 372.273L423.569 338.808ZM440.569 414.118C440.569 414.118 514.304 361.633 495.016 337.114C474.955 311.614 445.8 358.899 431.95 382.318C402.438 432.277 401.933 444.73 413.643 435.547L440.569 414.118ZM460.66 489.102C460.66 489.102 534.425 436.617 515.137 412.098C495.076 386.598 465.891 433.912 452.071 457.302C422.559 507.261 422.024 519.714 433.763 510.53L460.66 489.102ZM331.883 338.095C331.883 338.095 228.547 284.391 211.755 320.798C194.279 358.661 265.489 364.397 300.35 366.537C374.65 371.143 389.51 364.427 371.975 356.402L331.883 338.095ZM346.416 397.238C346.416 397.238 234.461 365.11 225.248 404.192C215.648 444.79 286.56 436.26 321.184 431.445C395.008 421.132 407.996 411.652 389.332 407.253L346.416 397.238ZM372.005 461.7C372.005 461.7 276.723 437.122 269.828 470.319C262.635 504.883 322.432 495.997 351.587 491.123C413.791 480.721 424.55 472.37 408.65 469.1L372.005 461.7ZM386.865 514.929C386.865 514.929 294.733 480.364 284.331 512.64C273.543 546.224 333.904 543.757 363.416 542.004C426.393 538.259 437.984 531.126 422.529 526.163L386.865 514.929ZM325.077 245.309C325.077 245.309 282.994 114.541 235.263 138.317C185.542 163.044 242.991 222.008 271.7 250.213C332.983 310.455 351.944 314.675 343.89 293.634L325.077 245.309Z" fill="#E5E5E5"/>
<path d="M255.235 184.918C255.235 184.918 360.89 313.813 386.182 378.335C415.218 452.636 434.536 537.872 438.459 607.18" stroke="#CCCCCC" stroke-width="1.25197" stroke-linecap="round" stroke-linejoin="round"/>
<path d="M365.14 336.252L379.821 213.33" stroke="#CCCCCC" stroke-width="1.25197" stroke-linecap="round" stroke-linejoin="round"/>
<path d="M386.182 378.335L439.321 275.029" stroke="#CCCCCC" stroke-width="1.25197" stroke-linecap="round" stroke-linejoin="round"/>
<path d="M378.395 363.03L267.093 340.354" stroke="#CCCCCC" stroke-width="1.25197" stroke-linecap="round" stroke-linejoin="round"/>
<path d="M407.075 436.973L472.518 362.406" stroke="#CCCCCC" stroke-width="1.25197" stroke-linecap="round" stroke-linejoin="round"/>
<path d="M397.921 412.424L313.902 411.681" stroke="#CCCCCC" stroke-width="1.25197" stroke-linecap="round" stroke-linejoin="round"/>
<path d="M414.118 473.41L349.656 475.966" stroke="#CCCCCC" stroke-width="1.25197" stroke-linecap="round" stroke-linejoin="round"/>
<path d="M427.344 512.343L461.878 466.366" stroke="#CCCCCC" stroke-width="1.25197" stroke-linecap="round" stroke-linejoin="round"/>
<path d="M429.87 529.462L354.5 525.717" stroke="#CCCCCC" stroke-width="1.25197" stroke-linecap="round" stroke-linejoin="round"/>
<path d="M731.558 446.543C718.57 451.447 722.642 440.599 762.764 404.46C781.606 387.579 820.807 353.936 831.417 382.08C841.641 409.244 761.456 435.101 761.456 435.101L731.558 446.543ZM751.916 479.948C751.916 479.948 836.142 481.553 835.31 452.547C834.419 422.321 786.391 441.55 763.091 451.417C713.339 472.399 706.028 481.494 719.907 481.137L751.916 479.948ZM720.294 526.044C720.294 526.044 784.489 539.478 788.026 517.128C791.741 493.917 752.362 501.674 732.984 505.805C691.911 514.721 684.986 520.665 695.686 522.24L720.294 526.044ZM690.158 573.596C690.158 573.596 754.323 587 757.89 564.68C761.605 541.469 722.226 549.196 702.848 553.357C661.775 562.273 654.85 568.068 665.55 569.762L690.158 573.596ZM707.336 430.94C707.336 430.94 685.165 349.656 657.555 358.602C628.845 367.934 660.794 408.62 676.784 428.236C710.902 470.081 721.691 474.539 717.381 461.344L707.336 430.94ZM683.025 467.733C683.025 467.733 644.924 392.304 619.721 406.629C593.419 421.489 632.828 455.013 652.413 471.032C694.2 505.27 705.642 507.499 698.776 495.403L683.025 467.733ZM661.3 513.027C661.3 513.027 627.389 450.139 606.288 462.8C584.384 475.966 618.473 503.397 635.413 516.504C671.523 544.5 681.242 546.224 675.179 536.06L661.3 513.027ZM640.317 547.145C640.317 547.145 613.421 481.137 591.16 491.48C567.979 502.238 598.947 533.088 614.401 547.948C647.331 579.6 656.842 582.245 651.878 571.724L640.317 547.145ZM753.253 381.783C753.253 381.783 802.143 295.149 766.033 281.419C728.437 267.123 725.316 326.653 724.425 355.719C722.523 417.923 729.596 430.019 736.788 415.456L753.253 381.783Z" fill="#92E3A9"/>
<path opacity="0.65" d="M731.558 446.543C718.57 451.447 722.642 440.599 762.764 404.46C781.606 387.579 820.807 353.936 831.417 382.08C841.641 409.244 761.456 435.101 761.456 435.101L731.558 446.543ZM751.916 479.948C751.916 479.948 836.142 481.553 835.31 452.547C834.419 422.321 786.391 441.55 763.091 451.417C713.339 472.399 706.028 481.494 719.907 481.137L751.916 479.948ZM720.294 526.044C720.294 526.044 784.489 539.478 788.026 517.128C791.741 493.917 752.362 501.674 732.984 505.805C691.911 514.721 684.986 520.665 695.686 522.24L720.294 526.044ZM690.158 573.596C690.158 573.596 754.323 587 757.89 564.68C761.605 541.469 722.226 549.196 702.848 553.357C661.775 562.273 654.85 568.068 665.55 569.762L690.158 573.596ZM707.336 430.94C707.336 430.94 685.165 349.656 657.555 358.602C628.845 367.934 660.794 408.62 676.784 428.236C710.902 470.081 721.691 474.539 717.381 461.344L707.336 430.94ZM683.025 467.733C683.025 467.733 644.924 392.304 619.721 406.629C593.419 421.489 632.828 455.013 652.413 471.032C694.2 505.27 705.642 507.499 698.776 495.403L683.025 467.733ZM661.3 513.027C661.3 513.027 627.389 450.139 606.288 462.8C584.384 475.966 618.473 503.397 635.413 516.504C671.523 544.5 681.242 546.224 675.179 536.06L661.3 513.027ZM640.317 547.145C640.317 547.145 613.421 481.137 591.16 491.48C567.979 502.238 598.947 533.088 614.401 547.948C647.331 579.6 656.842 582.245 651.878 571.724L640.317 547.145ZM753.253 381.783C753.253 381.783 802.143 295.149 766.033 281.419C728.437 267.123 725.316 326.653 724.425 355.719C722.523 417.923 729.596 430.019 736.788 415.456L753.253 381.783Z" fill="white"/>
<path d="M751.054 314.824C751.054 314.824 734.441 434.387 712.418 479.562C687.245 531.453 651.314 583.582 616.452 619.781" stroke="#CCCCCC" stroke-width="1.25197" stroke-linecap="round" stroke-linejoin="round"/>
<path d="M724.573 447.672L797.209 395.068" stroke="#CCCCCC" stroke-width="1.25197" stroke-linecap="round" stroke-linejoin="round"/>
<path d="M712.537 479.562L793.613 457.034" stroke="#CCCCCC" stroke-width="1.25197" stroke-linecap="round" stroke-linejoin="round"/>
<path d="M716.876 467.912L674.198 397.535" stroke="#CCCCCC" stroke-width="1.25197" stroke-linecap="round" stroke-linejoin="round"/>
<path d="M691.614 519.505L763.447 517.663" stroke="#CCCCCC" stroke-width="1.25197" stroke-linecap="round" stroke-linejoin="round"/>
<path d="M700.203 502.565L659.279 457.51" stroke="#CCCCCC" stroke-width="1.25197" stroke-linecap="round" stroke-linejoin="round"/>
<path d="M675.684 541.171L642.665 508.123" stroke="#CCCCCC" stroke-width="1.25197" stroke-linecap="round" stroke-linejoin="round"/>
<path d="M661.508 567.325L702.938 563.075" stroke="#CCCCCC" stroke-width="1.25197" stroke-linecap="round" stroke-linejoin="round"/>
<path d="M653.632 577.073L618.592 535.138" stroke="#CCCCCC" stroke-width="1.25197" stroke-linecap="round" stroke-linejoin="round"/>
<path d="M783.241 882.357H299.429C296.276 882.357 293.252 883.61 291.023 885.839C288.793 888.068 287.541 891.092 287.541 894.245V1126.54C287.521 1128.11 287.814 1129.67 288.403 1131.13C288.991 1132.59 289.864 1133.92 290.97 1135.04C292.076 1136.16 293.393 1137.05 294.845 1137.65C296.297 1138.26 297.855 1138.57 299.429 1138.57H733.906L795.277 1209.19V894.156C795.266 892.59 794.945 891.041 794.333 889.599C793.721 888.158 792.83 886.851 791.712 885.755C790.593 884.658 789.269 883.794 787.815 883.211C786.362 882.627 784.807 882.337 783.241 882.357Z" fill="#263238"/>
<path d="M618.176 1015.21C618.17 1010 619.709 1004.9 622.599 1000.57C625.489 996.234 629.599 992.854 634.41 990.857C639.221 988.859 644.517 988.334 649.627 989.346C654.736 990.359 659.431 992.864 663.117 996.546C666.802 1000.23 669.313 1004.92 670.331 1010.03C671.35 1015.14 670.83 1020.43 668.838 1025.25C666.846 1030.06 663.471 1034.17 659.14 1037.07C654.809 1039.96 649.717 1041.51 644.508 1041.51C637.529 1041.51 630.836 1038.74 625.899 1033.81C620.961 1028.87 618.184 1022.18 618.176 1015.21V1015.21Z" fill="white"/>
<path d="M505.418 1015.21C505.413 1009.99 506.953 1004.9 509.844 1000.57C512.735 996.23 516.847 992.851 521.66 990.854C526.473 988.857 531.77 988.333 536.88 989.348C541.991 990.363 546.685 992.872 550.37 996.556C554.054 1000.24 556.563 1004.94 557.578 1010.05C558.593 1015.16 558.069 1020.45 556.072 1025.27C554.076 1030.08 550.696 1034.19 546.361 1037.08C542.026 1039.97 536.931 1041.51 531.721 1041.51C524.745 1041.51 518.055 1038.74 513.122 1033.8C508.19 1028.87 505.418 1022.18 505.418 1015.21V1015.21Z" fill="white"/>
<path d="M392.661 1015.21C392.661 1010 394.203 1004.92 397.093 1000.59C399.984 996.267 404.091 992.896 408.897 990.905C413.704 988.915 418.992 988.394 424.094 989.409C429.196 990.423 433.883 992.928 437.561 996.607C441.24 1000.29 443.745 1004.97 444.76 1010.07C445.775 1015.18 445.254 1020.46 443.263 1025.27C441.272 1030.08 437.901 1034.18 433.576 1037.07C429.25 1039.97 424.165 1041.51 418.963 1041.51C411.987 1041.51 405.297 1038.74 400.364 1033.8C395.432 1028.87 392.661 1022.18 392.661 1015.21V1015.21Z" fill="white"/>
<path d="M1050.99 681.301C1050.99 681.301 1055.03 664.45 1047.63 651.581C1040.23 638.712 1034.14 647.539 1028.76 650.214C1023.38 652.889 1013.27 644.27 1009.23 649.56C1005.19 654.85 1009.92 658.981 1007.89 662.34C1005.87 665.698 991.727 661.656 989.706 671.256C987.685 680.855 998.443 680.677 994.401 685.373C990.36 690.069 980.938 691.317 985.664 700.233C990.389 709.149 998.443 706.979 998.443 710.338C998.443 713.696 989.706 720.442 995.085 727.159C1000.46 733.876 1007.89 729.18 1009.95 732.568C1012 735.956 1014.64 745.348 1018.68 747.428C1022.72 749.509 1032.83 746.745 1042.25 729.923C1051.67 713.102 1050.99 681.301 1050.99 681.301Z" fill="#263238" stroke="#263238" stroke-linecap="round" stroke-linejoin="round"/>
<path d="M1142.73 813.05C1140.56 817.716 1122.41 830.168 1122.41 830.168C1122.39 828.117 1122.82 826.087 1123.68 824.224C1124.99 822.233 1125.91 820.301 1126.66 819.113C1126.87 815.866 1125.8 812.665 1123.68 810.197C1121.22 807.462 1119.26 814.328 1118.19 818.905C1117.12 823.482 1109.95 830.436 1110.28 833.765C1110.88 837.676 1111.69 841.555 1112.69 845.385L1092.33 861.88C1085.94 867.2 1067.63 876.74 1067.63 876.74C1065.6 869.715 1062.88 862.907 1059.52 856.411C1052.39 842.651 1044.52 829.287 1035.95 816.378C1028.79 826.364 1034.43 840.154 1038.48 857.125C1042.52 874.095 1059.46 909.164 1059.46 909.164C1069.34 906.1 1078.56 901.244 1086.68 894.839C1101.78 883.486 1121.84 852.458 1121.84 852.458C1121.84 852.458 1127.78 849.813 1135.13 847.287C1142.47 844.761 1141.4 842.621 1142.59 835.399C1143.77 828.177 1149.93 818.34 1149.57 814.595C1149.21 810.85 1144.9 808.384 1142.73 813.05Z" fill="white" stroke="#263238" stroke-linecap="round" stroke-linejoin="round"/>
<path d="M1024.72 729.774C1024.72 729.774 1020.73 754.65 1017.38 767.43C1014.02 780.209 1009.89 779.526 1009.89 779.526C1001.37 775.174 991.86 773.125 982.305 773.582C968.159 774.919 951.991 790.403 958.737 825.443C965.484 860.483 987.685 894.126 987.685 894.126L976.243 936.537C976.243 936.537 965.187 972.201 956.449 1005.28C947.711 1038.36 935.496 1088.05 930.087 1098.15C924.678 1108.26 904.469 1121.93 888.301 1152.78C872.133 1183.63 849.665 1241.61 849.665 1241.61L855.609 1248.36C855.609 1248.36 926.313 1169.54 944.501 1150.7C962.69 1131.86 992.321 1082.67 1000.38 1053.72C1005.2 1036.37 1012.65 1019.85 1022.46 1004.74C1022.46 1004.74 1032.71 1064.51 1027.33 1081.33C1021.95 1098.15 1012.47 1127.13 1013.18 1147.99C1013.9 1168.86 1027.42 1248.24 1027.42 1248.24L1039.55 1248.89C1039.55 1248.89 1051.67 1191.65 1061.75 1138.45C1071.82 1085.26 1077.26 1062.37 1077.26 1007.69C1077.26 953.001 1059.07 889.846 1055.03 881.079C1050.99 872.312 1050.3 870.32 1050.3 870.32C1050.3 870.32 1059.73 858.195 1059.73 847.406C1059.73 836.618 1047.63 817.686 1047.63 817.686C1047.63 817.686 1053.01 806.928 1048.28 798.16C1045.84 793.224 1041.87 789.209 1036.96 786.718L1041.57 763.15L1024.72 729.774Z" fill="white" stroke="#263238" stroke-linecap="round" stroke-linejoin="round"/>
<path d="M982.365 913.83L976.243 936.507C976.243 936.507 965.187 972.171 956.449 1005.25C947.711 1038.33 935.496 1088.02 930.087 1098.12C924.678 1108.23 904.469 1121.9 888.301 1152.75C872.133 1183.6 849.665 1241.58 849.665 1241.58L855.609 1248.33C855.609 1248.33 926.313 1169.51 944.501 1150.67C962.69 1131.83 992.321 1082.64 1000.38 1053.69C1005.2 1036.34 1012.65 1019.82 1022.46 1004.71C1022.46 1004.71 1032.71 1064.48 1027.33 1081.3C1021.95 1098.12 1012.47 1127.1 1013.18 1147.96C1013.9 1168.83 1027.42 1248.24 1027.42 1248.24L1039.55 1248.89C1039.55 1248.89 1051.67 1191.65 1061.75 1138.45C1071.82 1085.26 1077.26 1062.37 1077.26 1007.69C1077.26 971.814 1069.38 932.168 1062.85 906.638C1020.35 916.089 996.095 916.238 982.365 913.83Z" fill="#263238" stroke="#263238" stroke-linecap="round" stroke-linejoin="round"/>
<path d="M1025.22 1004.71L1047.99 975.856" stroke="white" stroke-width="0.75" stroke-linecap="round" stroke-linejoin="round"/>
<path d="M1047.63 677.259C1047.63 677.259 1026.83 678.597 1023.38 706.979C1019.93 735.362 1025.4 771.62 1044.18 776.316C1062.97 781.012 1083.92 749.39 1085.94 722.463C1087.96 695.537 1071.2 671.85 1047.63 677.259Z" fill="white" stroke="#263238" stroke-linecap="round" stroke-linejoin="round"/>
<path d="M1074.23 744.07C1074.23 746.299 1073.25 748.112 1072.06 748.112C1070.87 748.112 1069.89 746.299 1069.89 744.07C1069.89 741.841 1070.84 740.057 1072.06 740.057C1073.28 740.057 1074.23 741.841 1074.23 744.07Z" fill="#263238"/>
<path d="M1057.17 736.343C1057.17 738.542 1056.22 740.355 1055.03 740.355C1053.84 740.355 1052.86 738.542 1052.86 736.343C1052.86 734.143 1053.81 732.301 1055.03 732.301C1056.25 732.301 1057.17 734.084 1057.17 736.343Z" fill="#263238"/>
<path d="M1083.12 699.936C1077.41 684.006 1064.18 673.455 1047.63 677.259C1047.63 677.259 1026.83 678.597 1023.38 706.979C1022.58 713.764 1022.29 720.599 1022.52 727.427L1022.7 727.843C1022.7 727.843 1019.96 719.907 1046.89 718.57C1055.77 718.035 1078.06 698.569 1083.12 699.936Z" fill="#263238" stroke="#263238" stroke-linecap="round" stroke-linejoin="round"/>
<path d="M1068.61 699.549C1068.61 699.549 1080.5 685.284 1090.31 693.962C1100.12 702.64 1082.25 721.839 1085.97 727.427C1089.68 733.014 1100.2 726.178 1100.2 726.178C1100.2 726.178 1094.65 738.066 1087.22 738.066C1079.79 738.066 1070.48 728.17 1070.48 718.243C1070.45 712.006 1069.82 705.787 1068.61 699.668V699.668" fill="#263238"/>
<path d="M1068.61 699.549C1068.61 699.549 1080.5 685.284 1090.31 693.962C1100.12 702.64 1082.25 721.839 1085.97 727.427C1089.68 733.014 1100.2 726.178 1100.2 726.178C1100.2 726.178 1094.65 738.066 1087.22 738.066C1079.79 738.066 1070.48 728.17 1070.48 718.243C1070.45 712.006 1069.82 705.787 1068.61 699.668V699.668" stroke="#263238" stroke-linecap="round" stroke-linejoin="round"/>
<path d="M1029.44 728.437C1029.44 728.437 1020.67 708.911 1016.63 718.986C1012.59 729.061 1019.34 740.563 1025.4 740.563" fill="white"/>
<path d="M1029.44 728.437C1029.44 728.437 1020.67 708.911 1016.63 718.986C1012.59 729.061 1019.34 740.563 1025.4 740.563" stroke="#263238" stroke-linecap="round" stroke-linejoin="round"/>
<path d="M1052.09 825.948C1050.07 823.607 1048.52 820.904 1047.51 817.984C1045.6 809.842 1044.54 801.527 1044.33 793.167L1043.44 792.246C1041.92 803.034 1037.17 822.59 1023.26 814.625C1009.35 806.66 998.265 784.608 994.104 774.563C991.923 773.93 989.659 773.63 987.388 773.671C992.173 781.903 1001.89 800.657 1000.35 813.942C998.622 828.802 986.139 856.976 962.898 842.027C968.98 860.319 977.263 877.804 987.566 894.096L977.134 932.732C1010.72 948.87 1051.43 940.846 1069.27 935.942C1063.83 908.035 1057.17 886.132 1054.91 881.228C1050.87 872.49 1050.19 870.469 1050.19 870.469C1050.19 870.469 1059.61 858.343 1059.61 847.555C1059.73 841.373 1055.65 832.398 1052.09 825.948Z" fill="#F5BF44" stroke="#263238" stroke-linecap="round" stroke-linejoin="round"/>
<path d="M1036.6 841.343C1037.53 839.085 1038.45 836.796 1039.28 834.478" stroke="#263238" stroke-width="0.75" stroke-linecap="round" stroke-linejoin="round"/>
<path d="M1000.08 903.191C1013.23 886.116 1024.48 867.66 1033.63 848.149" stroke="#263238" stroke-width="0.75" stroke-linecap="round" stroke-linejoin="round"/>
<path d="M1005.49 904.201C1005.49 904.201 1014.4 895.909 1028.91 882.832" stroke="#263238" stroke-width="0.75" stroke-linecap="round" stroke-linejoin="round"/>
<path d="M1018.56 900.754L1045.43 882.149" stroke="#263238" stroke-width="0.75" stroke-linecap="round" stroke-linejoin="round"/>
<path d="M989.022 778.248C989.022 778.248 980.938 770.848 963.433 782.973C945.928 795.099 894.067 830.793 892.105 838.193C890.144 845.593 969.555 919.002 975.618 923.044C981.681 927.086 990.478 921.706 990.478 921.706C990.478 921.706 1014.91 924.678 1016.28 921.974C1017.64 919.269 1006.91 906.549 1000.17 903.191C993.421 899.832 977.283 909.135 977.283 909.135C977.283 909.135 944.591 872.431 937.933 859.621C935.207 854.001 932.057 848.597 928.512 843.454L982.394 812.485" fill="white"/>
<path d="M989.022 778.248C989.022 778.248 980.938 770.848 963.433 782.973C945.928 795.099 894.067 830.793 892.105 838.193C890.144 845.593 969.555 919.002 975.618 923.044C981.681 927.086 990.478 921.706 990.478 921.706C990.478 921.706 1014.91 924.678 1016.28 921.974C1017.64 919.269 1006.91 906.549 1000.17 903.191C993.421 899.832 977.283 909.135 977.283 909.135C977.283 909.135 944.591 872.431 937.933 859.621C935.207 854.001 932.057 848.597 928.512 843.454L982.394 812.485" stroke="#263238" stroke-linecap="round" stroke-linejoin="round"/>
<path d="M987.952 915.376L995.62 914.633L1009.74 921.32" stroke="#263238" stroke-width="0.75" stroke-linecap="round" stroke-linejoin="round"/>
<path d="M988.19 910.175C988.19 910.175 995.62 907.946 999.335 910.175C1003.05 912.404 1012.71 917.605 1012.71 917.605" stroke="#263238" stroke-width="0.75" stroke-linecap="round" stroke-linejoin="round"/>
<path d="M990.151 905.866C990.151 905.866 998.087 904.588 1001.27 905.866C1004.48 907.614 1007.47 909.739 1010.18 912.196" stroke="#263238" stroke-width="0.75" stroke-linecap="round" stroke-linejoin="round"/>
<path d="M973.538 817.984H989.706" stroke="#263238" stroke-linecap="round" stroke-linejoin="round"/>
<path d="M1135.3 795.842L1118.96 834.3C1118.66 834.981 1118.54 835.725 1118.6 836.465C1118.65 837.205 1118.89 837.921 1119.28 838.55L1122.02 842.948C1122.45 843.654 1123.07 844.229 1123.81 844.613C1124.54 844.997 1125.37 845.175 1126.19 845.13C1127.02 845.084 1127.82 844.816 1128.51 844.353C1129.2 843.891 1129.75 843.252 1130.1 842.502L1148.38 804.163C1148.8 803.289 1148.93 802.305 1148.76 801.351C1148.59 800.396 1148.12 799.52 1147.43 798.844L1142.76 794.356C1142.23 793.832 1141.57 793.446 1140.85 793.233C1140.14 793.019 1139.38 792.984 1138.64 793.13C1137.91 793.277 1137.22 793.6 1136.64 794.073C1136.06 794.545 1135.6 795.153 1135.3 795.842V795.842Z" fill="#263238"/>
<path d="M1113.88 850.675C1115.41 846.772 1118.08 843.418 1121.54 841.046C1125.56 839.13 1129.81 837.732 1134.17 836.885C1134.17 836.885 1138.66 821.223 1140.74 823.63C1142.82 826.038 1141.99 838.104 1141.99 838.104" fill="white"/>
<path d="M1113.88 850.675C1115.41 846.772 1118.08 843.418 1121.54 841.046C1125.56 839.13 1129.81 837.732 1134.17 836.885C1134.17 836.885 1138.66 821.223 1140.74 823.63C1142.82 826.038 1141.99 838.104 1141.99 838.104" stroke="#263238" stroke-linecap="round" stroke-linejoin="round"/>
<path d="M1148.8 818.429C1148.06 817.696 1147.08 817.265 1146.05 817.221C1145.01 817.177 1144 817.523 1143.21 818.191C1140.48 820.688 1136.28 827.761 1131.83 831.536" stroke="#263238" stroke-linecap="round" stroke-linejoin="round"/>
<path d="M849.635 1241.58C849.635 1241.58 825.205 1254.54 816.468 1267.29C807.73 1280.04 814.863 1287.17 831.595 1281.62C848.327 1276.06 855.698 1248.33 855.698 1248.33L849.635 1241.58Z" fill="white" stroke="#263238" stroke-linecap="round" stroke-linejoin="round"/>
<path d="M1027.42 1248.24C1027.42 1248.24 1028.91 1267.2 1036.07 1274.36C1043.23 1281.53 1067.1 1291.87 1068.76 1283.1C1070.43 1274.33 1042.52 1253.68 1042.52 1253.68L1039.55 1248.89L1030.63 1248.09L1027.42 1248.24Z" fill="white" stroke="#263238" stroke-linecap="round" stroke-linejoin="round"/>
<path d="M1071.64 734.322C1069.98 734.988 1068.49 736.041 1067.31 737.396C1066.14 738.75 1065.3 740.365 1064.87 742.108C1063.66 745.815 1063.2 749.724 1063.5 753.61L1054.05 752.273" stroke="#263238" stroke-linecap="round" stroke-linejoin="round"/>
<path d="M1043.89 754.65C1044.55 756.552 1045.74 758.227 1047.32 759.484C1048.9 760.74 1050.8 761.527 1052.8 761.753" stroke="#263238" stroke-linecap="round" stroke-linejoin="round"/>
<path d="M1050.66 726.208C1050.66 726.208 1058.45 720.799 1065.19 725.881" stroke="#263238" stroke-linecap="round" stroke-linejoin="round"/>
<path d="M1071.64 734.322C1071.64 734.322 1081.45 730.28 1081.45 737.71" stroke="#263238" stroke-linecap="round" stroke-linejoin="round"/>
<path d="M783.241 516.712H299.429C296.276 516.712 293.252 517.964 291.023 520.194C288.793 522.423 287.541 525.447 287.541 528.6V843.632L348.913 773.017H783.241C784.815 773.017 786.373 772.705 787.825 772.098C789.277 771.492 790.594 770.603 791.7 769.483C792.806 768.363 793.678 767.035 794.267 765.576C794.856 764.116 795.149 762.554 795.129 760.981V528.749C795.149 527.175 794.856 525.613 794.267 524.154C793.678 522.694 792.806 521.366 791.7 520.246C790.594 519.127 789.277 518.238 787.825 517.631C786.373 517.024 784.815 516.712 783.241 516.712Z" fill="#92E3A9" stroke="#263238" stroke-miterlimit="10"/>
<path d="M464.494 649.56C464.494 644.351 462.949 639.259 460.054 634.928C457.159 630.597 453.045 627.222 448.232 625.23C443.419 623.238 438.123 622.718 433.014 623.737C427.905 624.755 423.213 627.266 419.532 630.951C415.851 634.637 413.345 639.332 412.332 644.441C411.32 649.551 411.845 654.847 413.843 659.658C415.841 664.469 419.22 668.579 423.554 671.469C427.889 674.359 432.982 675.898 438.192 675.892C441.648 675.892 445.071 675.211 448.264 673.887C451.457 672.564 454.358 670.623 456.801 668.178C459.243 665.732 461.18 662.829 462.5 659.635C463.82 656.44 464.498 653.017 464.494 649.56Z" fill="white" stroke="#263238" stroke-miterlimit="10"/>
<path d="M577.252 649.56C577.246 644.36 575.698 639.277 572.805 634.956C569.911 630.634 565.801 627.268 560.994 625.281C556.188 623.295 550.9 622.779 545.8 623.797C540.7 624.815 536.016 627.323 532.341 631.002C528.665 634.682 526.163 639.368 525.151 644.47C524.138 649.571 524.661 654.858 526.652 659.662C528.644 664.467 532.015 668.573 536.34 671.462C540.665 674.35 545.749 675.892 550.95 675.892C554.406 675.892 557.829 675.211 561.022 673.887C564.215 672.564 567.116 670.624 569.559 668.178C572.001 665.732 573.938 662.829 575.258 659.635C576.578 656.44 577.256 653.017 577.252 649.56Z" fill="white" stroke="#263238" stroke-miterlimit="10"/>
<path d="M690.039 649.56C690.039 644.352 688.494 639.261 685.601 634.931C682.708 630.601 678.595 627.226 673.784 625.233C668.972 623.24 663.678 622.718 658.57 623.734C653.462 624.75 648.77 627.258 645.087 630.941C641.405 634.623 638.897 639.315 637.881 644.423C636.865 649.531 637.386 654.826 639.379 659.637C641.372 664.449 644.747 668.561 649.078 671.454C653.408 674.348 658.499 675.892 663.707 675.892C667.165 675.892 670.589 675.211 673.784 673.888C676.978 672.565 679.881 670.625 682.326 668.18C684.772 665.735 686.711 662.832 688.034 659.637C689.358 656.442 690.039 653.018 690.039 649.56Z" fill="white" stroke="#263238" stroke-miterlimit="10"/>
<path d="M429.692 388.975L415.694 421.37C415.206 422.247 414.909 423.217 414.822 424.216C414.734 425.215 414.859 426.222 415.187 427.17C415.515 428.118 416.039 428.986 416.726 429.718C417.412 430.449 418.245 431.028 419.171 431.416L427.73 435.16C435.695 436.23 443.333 429.216 445.295 426.66L462.651 405.47L429.692 388.975Z" fill="white" stroke="#263238" stroke-linecap="round" stroke-linejoin="round"/>
<path d="M529.343 294.525L469.338 318.598V494.214H598.977V321.778L542.36 293.247L529.343 294.525Z" fill="#F5BF44" stroke="#263238" stroke-linecap="round" stroke-linejoin="round"/>
<path d="M570.386 314.497C566.701 310.277 566.701 293.336 566.701 293.336L551.336 288.581L538.378 290.008L525.42 288.581L510.084 293.336C510.084 293.336 510.084 310.277 506.369 314.497C502.654 318.717 494.214 327.187 494.214 327.187C494.214 327.187 496.324 329.833 503.13 322.432C506.844 318.257 511.336 314.845 516.355 312.387C516.316 315.419 517.243 318.386 519 320.857C525.044 325.168 531.325 329.137 537.813 332.745V333.31L538.289 333.013L538.794 333.31V332.864C545.286 329.263 551.567 325.294 557.607 320.976C559.364 318.505 560.291 315.538 560.252 312.506C565.276 314.955 569.769 318.368 573.477 322.551C580.372 329.951 582.393 327.306 582.393 327.306C582.393 327.306 574.101 318.747 570.386 314.497Z" fill="white" stroke="#263238" stroke-linecap="round" stroke-linejoin="round"/>
<path d="M522.656 282.934V303.233L538.883 333.369L553.951 304.392V283.529L522.656 282.934Z" fill="white" stroke="#263238" stroke-linecap="round" stroke-linejoin="round"/>
<path d="M508.747 249.321C508.747 249.321 505.24 234.788 501.793 241.802C498.345 248.816 508.747 263.23 508.747 263.23V249.321Z" fill="white" stroke="#263238" stroke-linecap="round" stroke-linejoin="round"/>
<path d="M567.86 248.756C567.86 248.756 575.973 238.889 577.133 245.279C578.292 251.669 569.019 263.111 569.019 263.111L567.86 248.756Z" fill="white" stroke="#263238" stroke-linecap="round" stroke-linejoin="round"/>
<path d="M538.883 293.366C530.891 293.366 523.225 290.191 517.574 284.539C511.922 278.888 508.747 271.223 508.747 263.23V202.958H569.019V263.23C569.019 271.223 565.844 278.888 560.193 284.539C554.541 290.191 546.876 293.366 538.883 293.366Z" fill="white" stroke="#263238" stroke-linecap="round" stroke-linejoin="round"/>
<path d="M519.654 250.48C519.654 250.48 524.231 255.978 532.166 250.48Z" fill="white"/>
<path d="M519.654 250.48C519.654 250.48 524.231 255.978 532.166 250.48" stroke="#263238" stroke-linecap="round" stroke-linejoin="round"/>
<path d="M544.708 250.48C544.708 250.48 549.285 255.978 557.25 250.48Z" fill="white"/>
<path d="M544.708 250.48C544.708 250.48 549.285 255.978 557.25 250.48" stroke="#263238" stroke-linecap="round" stroke-linejoin="round"/>
<path d="M518.881 241.386C518.881 241.386 523.458 232.975 533.385 239.335" stroke="#263238" stroke-linecap="round" stroke-linejoin="round"/>
<path d="M542.301 239.602C542.301 239.602 543.817 236.036 550.712 236.036C552.484 235.922 554.243 236.412 555.701 237.427C557.158 238.442 558.228 239.921 558.736 241.623" stroke="#263238" stroke-linecap="round" stroke-linejoin="round"/>
<path d="M533.385 266.826L538.229 269.62L542.539 267.094" stroke="#263238" stroke-linecap="round" stroke-linejoin="round"/>
<path d="M526.757 270.898C528.258 272.706 530.376 273.892 532.701 274.227" stroke="#263238" stroke-linecap="round" stroke-linejoin="round"/>
<path d="M566.701 223.257L567.86 248.756C567.86 248.756 568.425 252.234 569.584 245.279C570.743 238.325 576.568 219.185 575.379 213.39C574.19 207.594 566.107 207.446 562.629 209.348C559.152 211.25 566.701 223.257 566.701 223.257Z" fill="#263238" stroke="#263238" stroke-linecap="round" stroke-linejoin="round"/>
<path d="M508.747 241.802C508.747 241.802 505.27 215.054 503.516 201.234C501.763 187.414 520.338 186.166 520.338 186.166C520.338 186.166 533.088 175.705 557.428 172.822C581.769 169.939 593.36 178.766 592.765 185.007C592.171 191.248 578.292 196.003 578.292 196.003C578.292 196.003 595.083 197.757 585.246 207.03C575.409 216.302 566.106 215.708 566.106 215.708C566.106 215.708 574.814 219.779 569.584 222.662C564.353 225.545 527.292 214.549 527.292 214.549C527.292 214.549 528.451 221.503 523.221 223.257C517.99 225.01 516.266 224.416 515.701 227.299C515.137 230.181 515.107 247.597 512.224 249.321C509.341 251.045 508.747 241.802 508.747 241.802Z" fill="#263238" stroke="#263238" stroke-linecap="round" stroke-linejoin="round"/>
<path d="M469.011 319.341L422.47 395.425L464.315 412.543L469.011 388.44V319.341Z" fill="white" stroke="#263238" stroke-linecap="round" stroke-linejoin="round"/>
<path d="M646.886 391.502L659.457 414.119C659.945 414.995 660.242 415.965 660.329 416.964C660.417 417.964 660.292 418.97 659.964 419.918C659.636 420.866 659.111 421.735 658.425 422.466C657.739 423.198 656.905 423.776 655.98 424.164L638.148 431.624C636.677 432.234 635.044 432.335 633.508 431.909C631.973 431.484 630.625 430.557 629.678 429.276L613.956 407.996L646.886 391.502Z" fill="white" stroke="#263238" stroke-linecap="round" stroke-linejoin="round"/>
<path d="M598.977 321.779L651.938 392.78L610.746 411.8L598.977 391.65V321.779Z" fill="white" stroke="#263238" stroke-linecap="round" stroke-linejoin="round"/>
<path d="M414.564 421.638C416.199 416.466 418.279 412.722 436.557 404.846C454.835 396.97 481.85 388.856 489.578 380.713C490.885 378.068 514.572 353.609 514.572 353.609C514.572 353.609 522.983 352.182 524.528 351.677C528.449 351.393 532.39 351.724 536.208 352.658C538.378 353.43 538.586 354.649 537.694 355.184C535.31 355.793 532.887 356.24 530.443 356.521L529.7 356.907C532.798 359.431 535.564 362.337 537.932 365.556C538.199 366.388 538.853 366.477 537.189 367.042C535.525 367.607 530.234 363.832 530.234 363.832H525.36L531.542 367.607C531.542 367.607 537.486 373.343 535.435 374.621C533.385 375.899 532.761 375.839 532.463 374.621C532.166 373.402 528.095 370.816 528.095 370.816L519.773 369.925C522.408 371.488 524.948 373.205 527.381 375.066C528.564 376.37 529.647 377.761 530.621 379.227C530.621 379.227 529.878 381.635 527.203 380.059C524.528 378.484 520.159 375.661 520.159 375.661L516.563 375.007C512.833 379.195 508.863 383.164 504.675 386.895C502.777 387.963 500.704 388.688 498.553 389.035V389.273C488.907 401.389 477.717 412.19 465.267 421.4C446.365 434.833 432.575 440.421 426.244 439.232C419.914 438.043 412.9 426.809 414.564 421.638Z" fill="white" stroke="#263238" stroke-linecap="round" stroke-linejoin="round"/>
<path d="M525.42 363.773L515.137 361.99" stroke="#263238" stroke-width="0.75" stroke-linecap="round" stroke-linejoin="round"/>
<path d="M519.773 369.984L513.116 369.122" stroke="#263238" stroke-width="0.75" stroke-linecap="round" stroke-linejoin="round"/>
<path d="M529.789 356.848L518.406 356.581" stroke="#263238" stroke-width="0.75" stroke-linecap="round" stroke-linejoin="round"/>
<path d="M461.582 481.464H606.883V482.712C606.883 496.506 601.403 509.735 591.649 519.489C581.895 529.243 568.667 534.722 554.873 534.722H513.592C499.798 534.722 486.569 529.243 476.815 519.489C467.061 509.735 461.582 496.506 461.582 482.712V481.464Z" fill="#263238" stroke="#263238" stroke-linecap="round" stroke-linejoin="round"/>
<path d="M563.432 661.983C563.432 661.983 570.208 683.114 578.648 691.555C587.089 699.995 601.473 701.719 600.641 686.502C599.809 671.286 580.342 653.543 580.342 653.543C580.342 653.543 563.432 654.375 563.432 661.983Z" fill="white" stroke="#263238" stroke-linecap="round" stroke-linejoin="round"/>
<path d="M580.342 653.543C580.342 653.543 531.334 558.023 517.782 530.116C504.229 502.208 489.904 472.637 476.382 467.704C462.859 462.77 441.728 476.976 445.116 501.495C448.505 526.014 480.602 568.276 495.819 587.683C511.035 607.09 563.432 661.983 563.432 661.983C563.432 661.983 573.596 665.371 580.342 653.543Z" fill="#263238" stroke="#263238" stroke-linecap="round" stroke-linejoin="round"/>
<path d="M495.759 661.983C495.759 661.983 488.983 683.114 480.543 691.555C472.102 699.995 457.718 701.719 458.55 686.502C459.382 671.286 478.848 653.543 478.848 653.543C478.848 653.543 495.759 654.375 495.759 661.983Z" fill="white" stroke="#263238" stroke-linecap="round" stroke-linejoin="round"/>
<path d="M478.849 653.543C478.849 653.543 527.857 558.023 541.261 530.116C554.664 502.208 569.168 472.637 582.69 467.704C596.213 462.77 617.344 476.976 613.956 501.495C610.568 526.014 578.47 568.276 563.253 587.683C548.037 607.09 495.64 661.983 495.64 661.983C495.64 661.983 485.595 665.371 478.849 653.543Z" fill="#263238" stroke="#263238" stroke-linecap="round" stroke-linejoin="round"/>
<path d="M613.302 505.24C611.727 502.714 608.369 501.02 602.395 499.831C594.697 498.285 576.568 498.612 556.596 499.831C551.455 509.252 546.373 519.743 541.38 529.997C527.857 557.904 478.968 653.424 478.968 653.424C485.714 665.312 495.878 661.864 495.878 661.864C495.878 661.864 548.275 606.912 563.491 587.564C577.817 569.138 607.477 530.116 613.302 505.24Z" stroke="#263238" stroke-linecap="round" stroke-linejoin="round"/>
<path d="M525.45 359.82H547.502C549.205 359.82 550.837 360.496 552.041 361.7C553.245 362.904 553.922 364.537 553.922 366.24V417.566C553.922 419.072 553.323 420.515 552.259 421.58C551.194 422.644 549.75 423.243 548.245 423.243H524.707C523.201 423.243 521.757 422.644 520.693 421.58C519.628 420.515 519.03 419.072 519.03 417.566V366.21C519.038 364.512 519.718 362.887 520.921 361.69C522.124 360.492 523.752 359.82 525.45 359.82V359.82Z" fill="#263238"/>
<path d="M663.767 419.409C660.557 415.04 657.436 412.276 637.583 410.493C617.73 408.709 589.556 409.75 579.629 404.549C577.549 402.468 547.324 386.717 547.324 386.717C547.324 386.717 538.853 388.054 537.249 388.054C533.44 389.036 529.809 390.611 526.49 392.72C524.677 394.117 524.885 395.335 525.895 395.544C528.344 395.38 530.777 395.042 533.177 394.533H534.009C531.878 397.881 530.181 401.487 528.957 405.262C528.957 406.154 528.392 406.451 530.145 406.451C531.899 406.451 535.703 401.19 535.703 401.19L540.369 399.704L535.703 405.262C535.703 405.262 531.899 412.573 534.217 413.168C536.535 413.762 537.189 413.435 537.189 412.276C537.915 410.477 538.918 408.802 540.161 407.313L547.769 403.806C545.766 406.124 543.909 408.566 542.212 411.117C541.497 412.722 540.911 414.382 540.458 416.08C540.458 416.08 541.915 418.131 543.965 415.783C546.016 413.435 549.226 409.363 549.226 409.363L552.435 407.61C557.341 410.439 562.412 412.97 567.622 415.188C569.764 415.584 571.96 415.584 574.101 415.188V415.397C587.11 423.799 601.157 430.472 615.888 435.249C638.089 441.966 653.008 442.858 658.536 439.648C664.064 436.438 667.006 423.807 663.767 419.409Z" fill="white" stroke="#263238" stroke-linecap="round" stroke-linejoin="round"/>
<path d="M540.28 399.853L549.463 394.919" stroke="#263238" stroke-width="0.75" stroke-linecap="round" stroke-linejoin="round"/>
<path d="M547.591 403.954L553.624 401.012" stroke="#263238" stroke-width="0.75" stroke-linecap="round" stroke-linejoin="round"/>
<path d="M533.92 394.682L544.619 390.818" stroke="#263238" stroke-width="0.75" stroke-linecap="round" stroke-linejoin="round"/>
<path d="M514.156 522.775L483.604 525.747L521.259 580.818L512.343 606.971C520.278 615.887 529.432 625.814 537.784 634.789L546.224 628.845C546.224 628.845 558.469 646.024 570.802 661.537C574.869 660.104 578.223 657.155 580.164 653.305C580.164 653.305 531.156 557.785 517.604 529.878C516.623 527.679 515.404 525.212 514.156 522.775Z" stroke="#263238" stroke-linecap="round" stroke-linejoin="round"/>
<path opacity="0.2" d="M624.12 516.712H479.384L524.915 589.437C524.915 589.437 474.391 666.887 474.391 676.16C474.391 685.432 476.085 713.221 489.548 707.306C503.011 701.392 492.936 669.413 496.294 662.726C499.653 656.039 537.902 628.221 537.902 628.221C537.902 628.221 563.64 641.655 570.921 654.969C578.203 668.284 580.461 689.534 587.208 703.027C593.954 716.519 610.776 720.71 610.776 707.217C610.776 693.724 557.726 595.232 557.726 595.232C557.726 595.232 569.614 581.769 595.619 553.981C606.445 542.63 616.002 530.134 624.12 516.712V516.712Z" fill="#263238"/>
</svg>
