<?xml version="1.0" standalone="no"?>
<!DOCTYPE svg PUBLIC "-//W3C//DTD SVG 20010904//EN"
 "http://www.w3.org/TR/2001/REC-SVG-20010904/DTD/svg10.dtd">
<svg version="1.0" xmlns="http://www.w3.org/2000/svg"
 width="223.000000pt" height="223.000000pt" viewBox="0 0 223.000000 223.000000"
 preserveAspectRatio="xMidYMid meet">
<metadata>
Created by potrace 1.11, written by Peter Selinger 2001-2013
</metadata>
<g transform="translate(0.000000,223.000000) scale(0.100000,-0.100000)"
fill="#000000" stroke="none">
<path d="M376 2213 c-70 -24 -137 -95 -161 -168 -55 -177 63 -344 249 -351 37
-2 76 1 85 5 9 5 27 14 41 20 49 23 99 77 126 135 59 130 4 280 -128 347 -57
29 -148 34 -212 12z"/>
<path d="M478 1582 c-23 -3 -26 -7 -24 -35 2 -29 6 -32 45 -39 86 -15 160 -77
223 -188 25 -44 122 -266 348 -800 62 -146 118 -278 125 -295 7 -16 32 -73 55
-127 41 -96 41 -96 73 -91 18 3 32 6 33 6 0 1 56 132 124 292 67 160 131 308
141 330 10 22 95 222 190 445 94 223 178 418 186 434 10 19 11 31 5 35 -16 10
-142 6 -151 -5 -5 -5 -89 -198 -186 -429 -98 -231 -197 -464 -220 -518 l-42
-98 -16 25 c-10 14 -17 29 -17 34 0 26 -288 689 -328 756 -79 131 -180 210
-324 251 -54 15 -179 24 -240 17z"/>
</g>
</svg>
