<?xml version="1.0" standalone="no"?>
<!DOCTYPE svg PUBLIC "-//W3C//DTD SVG 20010904//EN"
 "http://www.w3.org/TR/2001/REC-SVG-20010904/DTD/svg10.dtd">
<svg version="1.0" xmlns="http://www.w3.org/2000/svg"
 width="422.000000pt" height="422.000000pt" viewBox="0 0 422.000000 422.000000"
 preserveAspectRatio="xMidYMid meet">
<metadata>
Created by potrace 1.11, written by Peter Selinger 2001-2013
</metadata>
<g transform="translate(0.000000,422.000000) scale(0.100000,-0.100000)"
fill="#000000" stroke="none">
<path d="M2377 3541 c-10 -17 -23 -36 -30 -43 -17 -19 -96 -138 -159 -243 -99
-164 -224 -431 -302 -647 -14 -39 -21 -46 -39 -43 -12 2 -49 7 -82 10 -33 3
-100 10 -150 15 -206 23 -197 22 -330 34 -38 4 -86 9 -105 11 -19 2 -62 7 -95
10 -33 3 -78 8 -100 10 -22 2 -71 7 -110 10 -72 6 -133 12 -220 20 -27 3 -86
7 -130 10 -44 3 -100 8 -125 10 -68 6 -217 16 -290 19 -70 3 -66 1 49 -34 275
-85 583 -315 856 -641 51 -62 183 -254 242 -353 156 -263 308 -625 399 -951
14 -49 29 -94 33 -98 5 -5 48 1 97 12 77 17 532 115 589 127 63 12 626 132
635 135 3 1 41 9 85 18 l80 17 1 80 c2 111 13 314 18 344 3 14 8 52 11 85 7
73 41 258 62 340 8 33 17 71 20 85 9 52 113 351 157 454 164 381 393 726 655
986 64 64 109 116 101 116 -23 1 -230 15 -280 19 -25 2 -88 6 -140 10 -52 3
-126 8 -165 10 -38 3 -103 8 -143 11 -75 6 -109 8 -272 19 -161 10 -212 14
-285 19 -38 3 -110 8 -160 11 -120 8 -205 14 -290 21 -70 5 -70 5 -88 -25z"/>
</g>
</svg>
