<svg width="1392" height="293" viewBox="0 0 1392 293" fill="none" xmlns="http://www.w3.org/2000/svg">
<path d="M487.1 119.1H446.6V259.5H420.2V119.1H392V106.8L420.2 97.8V88.5C420.2 67.7 424.8 52.8 434 43.8C443.2 34.6 456 30 472.4 30C478.8 30 484.6 30.6 489.8 31.8C495.2 32.8 499.8 34 503.6 35.4L496.7 56.1C493.5 55.1 489.8 54.1 485.6 53.1C481.4 52.1 477.1 51.6 472.7 51.6C463.9 51.6 457.3 54.6 452.9 60.6C448.7 66.4 446.6 75.6 446.6 88.2V98.7H487.1V119.1Z" fill="#33AB74"/>
<path d="M578.225 95.7C592.025 95.7 603.825 98.7 613.625 104.7C623.625 110.7 631.225 119.2 636.425 130.2C641.825 141 644.525 153.7 644.525 168.3V184.2H534.425C534.825 202.4 539.425 216.3 548.225 225.9C557.225 235.3 569.725 240 585.725 240C595.925 240 604.925 239.1 612.725 237.3C620.725 235.3 628.925 232.5 637.325 228.9V252C629.125 255.6 621.025 258.2 613.025 259.8C605.025 261.6 595.525 262.5 584.525 262.5C569.325 262.5 555.825 259.4 544.025 253.2C532.425 247 523.325 237.8 516.725 225.6C510.325 213.2 507.125 198.1 507.125 180.3C507.125 162.7 510.025 147.6 515.825 135C521.825 122.4 530.125 112.7 540.725 105.9C551.525 99.1 564.025 95.7 578.225 95.7ZM577.925 117.3C565.325 117.3 555.325 121.4 547.925 129.6C540.725 137.6 536.425 148.8 535.025 163.2H616.925C616.725 149.6 613.525 138.6 607.325 130.2C601.125 121.6 591.325 117.3 577.925 117.3Z" fill="#33AB74"/>
<path d="M711.861 259.5H685.461V31.5H711.861V259.5Z" fill="#33AB74"/>
<path d="M789.205 259.5H762.805V31.5H789.205V259.5Z" fill="#33AB74"/>
<path d="M979.948 178.8C979.948 205.4 973.148 226 959.548 240.6C946.148 255.2 927.948 262.5 904.948 262.5C890.748 262.5 878.048 259.3 866.848 252.9C855.848 246.3 847.148 236.8 840.748 224.4C834.348 211.8 831.148 196.6 831.148 178.8C831.148 152.2 837.848 131.7 851.248 117.3C864.648 102.9 882.848 95.7 905.848 95.7C920.448 95.7 933.248 99 944.248 105.6C955.448 112 964.148 121.4 970.348 133.8C976.748 146 979.948 161 979.948 178.8ZM858.448 178.8C858.448 197.8 862.148 212.9 869.548 224.1C877.148 235.1 889.148 240.6 905.548 240.6C921.748 240.6 933.648 235.1 941.248 224.1C948.848 212.9 952.648 197.8 952.648 178.8C952.648 159.8 948.848 144.9 941.248 134.1C933.648 123.3 921.648 117.9 905.248 117.9C888.848 117.9 876.948 123.3 869.548 134.1C862.148 144.9 858.448 159.8 858.448 178.8Z" fill="#33AB74"/>
<path d="M1119.73 168.6C1117.13 160.4 1114.83 152.4 1112.83 144.6C1111.03 136.6 1109.63 130.4 1108.63 126H1107.43C1106.63 130.4 1105.33 136.6 1103.53 144.6C1101.73 152.4 1099.43 160.5 1096.63 168.9L1067.83 259.2H1037.83L993.73 98.4H1021.03L1043.23 184.2C1045.43 192.8 1047.53 201.5 1049.53 210.3C1051.53 219.1 1052.93 226.4 1053.73 232.2H1054.93C1055.73 228.8 1056.63 224.6 1057.63 219.6C1058.83 214.6 1060.13 209.4 1061.53 204C1062.93 198.4 1064.33 193.4 1065.73 189L1094.23 98.4H1123.03L1150.63 189C1152.83 195.8 1154.93 203.2 1156.93 211.2C1159.13 219.2 1160.63 226.1 1161.43 231.9H1162.63C1163.23 226.9 1164.53 220 1166.53 211.2C1168.73 202.4 1171.03 193.4 1173.43 184.2L1195.93 98.4H1222.93L1178.23 259.2H1147.33L1119.73 168.6Z" fill="#33AB74"/>
<path d="M1391.57 178.8C1391.57 205.4 1384.77 226 1371.17 240.6C1357.77 255.2 1339.57 262.5 1316.57 262.5C1302.37 262.5 1289.67 259.3 1278.47 252.9C1267.47 246.3 1258.77 236.8 1252.37 224.4C1245.97 211.8 1242.77 196.6 1242.77 178.8C1242.77 152.2 1249.47 131.7 1262.87 117.3C1276.27 102.9 1294.47 95.7 1317.47 95.7C1332.07 95.7 1344.87 99 1355.87 105.6C1367.07 112 1375.77 121.4 1381.97 133.8C1388.37 146 1391.57 161 1391.57 178.8ZM1270.07 178.8C1270.07 197.8 1273.77 212.9 1281.17 224.1C1288.77 235.1 1300.77 240.6 1317.17 240.6C1333.37 240.6 1345.27 235.1 1352.87 224.1C1360.47 212.9 1364.27 197.8 1364.27 178.8C1364.27 159.8 1360.47 144.9 1352.87 134.1C1345.27 123.3 1333.27 117.9 1316.87 117.9C1300.47 117.9 1288.57 123.3 1281.17 134.1C1273.77 144.9 1270.07 159.8 1270.07 178.8Z" fill="#33AB74"/>
<path d="M168.579 293C127.856 138.31 39.2253 89.2125 0 84C59.1673 86.6463 167.581 98.3343 214.392 103.847C278.35 151.722 308.113 228.245 315 260.522L168.579 293Z" fill="#F5BF44"/>
<path d="M422 12.5828L239.956 0C159.556 105.935 159.516 239.473 169.546 293L317.889 261.243C314.278 133.498 385.792 42.2423 422 12.5828Z" fill="#33AB74"/>
</svg>
