<svg width="789" height="242" viewBox="0 0 789 242" fill="none" xmlns="http://www.w3.org/2000/svg">
<path d="M58.8779 123.564C53.7259 111.542 48.7886 103.17 44.0659 98.4477C39.3432 93.5104 33.1179 90.827 25.3899 90.3977V83.9577C26.4632 83.9577 27.9659 83.8504 29.8979 83.6357C32.0446 83.421 34.1912 83.3137 36.3379 83.3137C47.7152 83.3137 58.0192 86.2117 67.2499 92.0077C76.4806 97.589 84.4232 108.108 91.0779 123.564L120.058 192.794L165.138 86.5337H181.238L115.228 241.094H108.788L58.8779 123.564Z" fill="#F9FCF8"/>
<path d="M266.651 241.094C252.054 241.094 239.71 237.659 229.621 230.79C219.532 223.706 211.911 214.26 206.759 202.454C201.607 190.432 199.031 177.016 199.031 162.204C199.031 147.606 201.607 134.297 206.759 122.276C211.911 110.254 219.317 100.809 228.977 93.9397C238.852 86.8557 250.336 83.3137 263.431 83.3137C285.112 83.3137 301.212 89.4317 311.731 101.668C322.464 113.689 327.831 131.184 327.831 154.154L327.187 167.034H229.621C229.621 185.066 233.485 199.77 241.213 211.148C248.941 222.525 259.567 228.214 273.091 228.214C283.18 228.214 291.66 226.067 298.529 221.774C305.613 217.48 312.16 211.04 318.171 202.454L324.611 207.284C317.527 219.09 309.262 227.677 299.817 233.044C290.372 238.41 279.316 241.094 266.651 241.094ZM297.241 154.154C297.241 135.263 294.45 120.88 288.869 111.006C283.288 101.131 274.808 96.1937 263.431 96.1937C256.991 96.1937 251.195 98.7697 246.043 103.922C240.891 108.859 236.812 115.728 233.807 124.53C231.016 133.331 229.621 143.206 229.621 154.154H297.241Z" fill="#F9FCF8"/>
<path d="M415.505 241.094C390.819 241.094 374.182 236.8 365.595 228.214C361.946 224.564 359.692 220.486 358.833 215.978C357.975 211.255 357.545 204.064 357.545 194.404H363.985C365.917 205.137 370.533 213.509 377.831 219.52C385.345 225.316 395.756 228.214 409.065 228.214C420.872 228.214 429.673 226.174 435.469 222.096C441.48 218.017 444.485 212.543 444.485 205.674C444.485 199.448 442.124 194.082 437.401 189.574C432.893 185.066 425.595 180.772 415.505 176.694L396.185 168.644C383.305 163.492 373.645 157.481 367.205 150.612C360.765 143.742 357.545 135.263 357.545 125.174C357.545 112.079 362.483 101.882 372.357 94.5837C382.232 87.0704 395.005 83.3137 410.675 83.3137C434.289 83.3137 450.389 87.607 458.975 96.1937C462.625 99.843 464.879 103.922 465.737 108.43C466.596 112.938 467.025 120.129 467.025 130.004H460.585C458.868 119.27 454.36 111.006 447.061 105.21C439.763 99.199 429.781 96.1937 417.115 96.1937C407.026 96.1937 399.083 98.3404 393.287 102.634C387.706 106.712 384.915 112.079 384.915 118.734C384.915 129.896 393.502 139.02 410.675 146.104L429.995 154.154C444.593 160.164 455.219 166.604 461.873 173.474C468.528 180.128 471.855 188.715 471.855 199.234C471.855 212.328 466.596 222.632 456.077 230.146C445.559 237.444 432.035 241.094 415.505 241.094Z" fill="#F9FCF8"/>
<path d="M525.723 67.2137C520.785 67.2137 516.492 65.1744 512.843 61.0957C509.408 57.017 507.691 52.187 507.691 46.6057C507.691 42.0977 508.979 38.5557 511.555 35.9797C514.345 33.4037 517.995 32.1157 522.503 32.1157C527.44 32.1157 531.626 34.155 535.061 38.2337C538.71 42.3124 540.535 47.1424 540.535 52.7237C540.535 57.2317 539.139 60.7737 536.349 63.3497C533.773 65.9257 530.231 67.2137 525.723 67.2137ZM513.487 125.174C513.487 114.226 511.984 106.176 508.979 101.024C505.973 95.657 499.963 92.9737 490.947 92.9737H484.507V86.5337H513.487C521.429 86.5337 527.333 87.607 531.197 89.7537C535.275 91.6857 538.173 95.335 539.891 100.702C541.608 106.068 542.467 114.226 542.467 125.174V237.874H513.487V125.174Z" fill="#F9FCF8"/>
<path d="M591.702 63.9937C591.702 53.0457 590.2 44.9957 587.194 39.8437C584.189 34.477 578.178 31.7937 569.162 31.7937H562.722V25.3537H591.702C599.645 25.3537 605.548 26.427 609.412 28.5737C613.491 30.5057 616.389 34.155 618.106 39.5217C619.824 44.8884 620.682 53.0457 620.682 63.9937V237.874H591.702V63.9937Z" fill="#F9FCF8"/>
<path d="M727.325 241.094C712.727 241.094 700.384 237.659 690.295 230.79C680.205 223.706 672.585 214.26 667.433 202.454C662.281 190.432 659.705 177.016 659.705 162.204C659.705 147.606 662.281 134.297 667.433 122.276C672.585 110.254 679.991 100.809 689.651 93.9397C699.525 86.8557 711.01 83.3137 724.105 83.3137C745.786 83.3137 761.886 89.4317 772.405 101.668C783.138 113.689 788.505 131.184 788.505 154.154L787.861 167.034H690.295C690.295 185.066 694.159 199.77 701.887 211.148C709.615 222.525 720.241 228.214 733.765 228.214C743.854 228.214 752.333 226.067 759.203 221.774C766.287 217.48 772.834 211.04 778.845 202.454L785.285 207.284C778.201 219.09 769.936 227.677 760.491 233.044C751.045 238.41 739.99 241.094 727.325 241.094ZM757.915 154.154C757.915 135.263 755.124 120.88 749.543 111.006C743.961 101.131 735.482 96.1937 724.105 96.1937C717.665 96.1937 711.869 98.7697 706.717 103.922C701.565 108.859 697.486 115.728 694.481 124.53C691.69 133.331 690.295 143.206 690.295 154.154H757.915Z" fill="#F9FCF8"/>
<circle cx="27" cy="45.8737" r="27" fill="#F9FCF8"/>
<path d="M523 45.8737L511.349 42.178C370.73 -2.4253 220.284 -5.85859 77.7761 32.2835L27 45.8737" stroke="#F9FCF8" stroke-width="12"/>
</svg>
